<?xml version="1.0" encoding="UTF-8"?>
<svg xmlns="http://www.w3.org/2000/svg" viewBox="-7 -10 12 14">
  <g id="traced-anatomy" transform="matrix(0.0095, 0, 0, 0.0095, -0.7335, -9.768)">
    <path id="head-and-neck" d="m 393.21183,843.8591 2.20906,2.20905 c 4.39493,8.22676 12.8564,14.1498 22.09055,15.46339 8.80803,1.25297 17.64329,-1.46303 26.50866,-2.20906 1.88767,-0.15885 3.78511,-0.22851 5.65941,-0.50336 1.8743,-0.27485 3.74198,-0.76433 5.38587,-1.70569 1.60456,-0.91884 2.95625,-2.25132 3.98629,-3.78686 1.03005,-1.53554 1.74451,-3.27083 2.19758,-5.06349 0.90614,-3.5853 0.77333,-7.34787 0.44329,-11.03115 -0.40019,-4.46623 -1.08315,-8.91386 -2.20905,-13.25433 -1.75451,-6.76383 -4.56585,-13.20478 -6.62717,-19.8815 -0.89611,-2.90254 -1.65039,-5.85032 -2.20905,-8.83622 -1.09173,-5.83504 -1.42297,-11.90922 0,-17.67244 1.81595,-7.35482 6.62622,-14.00375 13.25433,-17.67244 5.51238,-3.05112 11.95269,-3.98519 17.67244,-6.62717 9.11472,-4.21013 15.74751,-12.41269 24.29961,-17.67244 3.66116,-2.2517 7.67273,-3.96253 11.04527,-6.62716 5.0136,-3.96122 8.23935,-9.72282 11.04528,-15.46339 3.48645,-7.13281 6.53345,-14.49256 8.83622,-22.09055 1.95228,-6.44155 3.37289,-13.25199 2.20906,-19.8815 -1.43401,-8.16849 -6.5795,-15.10218 -11.04528,-22.09055 -4.97122,-7.77932 -9.24766,-15.98231 -13.25433,-24.29961 -5.8821,-12.21043 -11.29787,-24.85607 -19.8815,-35.34488 -5.63525,-6.88602 -12.51785,-12.67746 -19.8815,-17.67245 -8.79511,-5.96599 -18.34567,-10.8671 -26.50866,-17.67244 -9.21893,-7.68567 -16.34222,-17.52322 -24.29961,-26.50866 -7.36301,-8.31426 -15.67655,-16.22959 -19.88149,-26.50866 -2.85334,-6.97506 -3.61632,-14.59722 -4.41811,-22.09056 -1.1003,-10.28312 -2.33092,-20.58567 -2.20906,-30.92677 0.18312,-15.53909 3.41476,-30.88242 4.41811,-46.39016 0.61835,-9.55714 0.38842,-19.14847 0,-28.71772 -0.75331,-18.55897 -2.11939,-37.20743 -6.62716,-55.22638 -4.35428,-17.40541 -11.56605,-33.93759 -17.67245,-50.80827 C 371.2181,249.25374 365.83217,230.54615 355.65789,214.27836 344.8425,196.98548 329.18283,183.35846 313.68584,170.09725 297.78018,156.48633 281.78326,142.96239 265.08663,130.33426 240.77505,111.94673 214.98132,95.471172 187.76969,81.735044 152.12368,63.741336 114.11649,50.500816 75.107878,41.972049 42.475579,34.837386 9.1034884,30.986089 -24.299608,30.926773 c -38.423708,-0.06823 -76.653432,4.859619 -114.870872,8.836221 -38.4524,4.00105 -77.13396,7.065697 -114.87087,15.463387 -32.80477,7.30013 -64.68619,18.604416 -94.98938,33.135828 -29.53543,14.163241 -57.57161,31.380701 -83.9441,50.808271 -23.13545,17.04297 -45.07907,35.86376 -64.0626,57.43544 -18.25988,20.74938 -33.67623,43.93859 -46.39016,68.48071 -12.35718,23.85347 -22.19628,49.0472 -28.71771,75.10788 -9.73133,38.88793 -11.99412,79.22177 -13.25434,119.28898 -0.85673,27.23862 -1.2697,54.51255 0,81.73504 1.49929,32.14509 5.40031,64.42324 15.46339,94.98938 9.73186,29.56009 25.13594,57.12224 44.18111,81.73504 15.32037,19.7991 32.94329,37.68897 50.80827,55.22638 16.38976,16.08924 33.13285,32.05376 46.39016,50.80827 13.59074,19.2262 23.27999,41.15439 28.71771,64.0626 5.47867,23.08073 6.66068,46.96773 6.62717,70.68977 -0.0419,29.66834 -1.97524,59.49803 -8.83622,88.36223 -6.84404,28.7929 -18.47428,56.1782 -28.71772,83.9441 -14.54466,39.4248 -26.46675,80.081 -46.39016,117.0799 -7.85062,14.579 -16.89513,28.4902 -26.50866,41.9721 -16.10679,22.5879 -33.84015,44.0157 -53.01733,64.0626" />
    <path id="lower-jaw" d="m 384.37561,912.33981 c 2.4662,-8.26358 5.41838,-16.38209 8.83622,-24.29961 2.36169,-5.47092 4.98841,-10.91333 8.83622,-15.46338 4.12871,-4.8822 9.56338,-8.58112 15.46339,-11.04528 7.64139,-3.19145 16.29625,-4.33566 24.29961,-2.20906 6.27716,1.66793 12.13116,5.47025 15.46338,11.04528 2.40019,4.01567 3.39213,8.68991 4.41811,13.25433 1.14525,5.09501 2.3858,10.24425 2.20906,15.46339 -0.27279,8.05536 -3.93863,15.68923 -8.83622,22.09055 -2.43992,3.18906 -5.19142,6.12969 -7.63305,9.31744 -2.44163,3.18776 -4.59588,6.68181 -5.62128,10.56406 -1.51265,5.72706 -0.4631,11.76711 0,17.67244 0.86386,11.0158 -0.35601,22.09194 0,33.13583 0.40431,12.5424 2.83969,25.0208 2.20905,37.5539 -0.7444,14.794 -5.78884,29.1783 -13.25433,41.9721 -5.57279,9.5503 -12.69091,18.4763 -22.09055,24.2996 -10.55666,6.5401 -23.14804,8.7103 -35.34489,11.0453 -19.14981,3.6661 -38.16929,8.0499 -57.43543,11.0452 -16.08484,2.5007 -32.32581,4.029 -48.59922,4.4182 -16.31926,0.3903 -32.97826,-0.3207 -48.59921,4.4181 -11.44773,3.4728 -21.92138,9.7975 -30.92678,17.6724 -6.69182,5.8517 -12.61726,12.5693 -17.67244,19.8815 -10.95175,15.8415 -17.69694,34.2666 -22.09055,53.0173 -3.56779,15.2264 -5.65411,30.7817 -6.62717,46.3902 -1.00851,16.177 -0.82501,32.4118 0,48.5992 0.82818,16.2497 2.30244,32.4665 4.41812,48.5992" />
    <path id="upper-tooth" d="m 386.58467,823.9776 v 0 l 2.20905,17.67244 -2.20905,11.04528 -2.20906,8.83622 -6.62717,8.83622 -13.25433,-19.8815 -8.83622,-17.67244 -2.20905,-15.46338" />
    <path id="lower-tooth" d="m 364.49411,923.38509 c -0.36213,-8.15001 0.38319,-16.34851 2.20906,-24.29961 0.75371,-3.28217 1.69111,-6.52579 2.25086,-9.84655 0.55975,-3.32075 0.73321,-6.75774 -0.0418,-10.03495 -0.3839,-1.62334 -1.02861,-3.23948 -2.20905,-4.41811 -0.77061,-0.76943 -1.74995,-1.32426 -2.80115,-1.60857 -1.05121,-0.28432 -2.17167,-0.29948 -3.23461,-0.0628 -2.12588,0.47338 -3.97129,1.96585 -5.00952,3.88041 -0.89995,1.65956 -1.21269,3.5692 -1.40743,5.447 -0.19474,1.8778 -0.28818,3.78156 -0.80162,5.59827 -1.01943,3.60709 -3.62891,6.58661 -6.62717,8.83622 -2.95258,2.21534 -6.37328,3.87773 -8.83622,6.62717 -1.84158,2.0558 -3.05765,4.66463 -3.44798,7.39692 -0.39032,2.73228 0.0466,5.57726 1.23893,8.06647" />
    <path id="tongue" d="m 280.55001,934.43036 c 0.7346,0.0623 1.47446,0.0623 2.20906,0 2.80538,-0.23789 5.4841,-1.38699 7.79113,-3.0008 2.30703,-1.6138 4.2651,-3.68051 6.02497,-5.87815 3.51973,-4.39527 6.34045,-9.3982 10.48351,-13.2116 2.12252,-1.95363 4.54373,-3.5478 6.88135,-5.23815 2.33761,-1.69036 4.62706,-3.51072 6.37298,-5.80713 2.99609,-3.94075 4.16381,-8.96038 6.62716,-13.25433 2.61558,-4.5593 6.63657,-8.18314 11.04528,-11.04527 2.5513,-1.6563 5.27562,-3.1025 7.48037,-5.19809 1.10238,-1.0478 2.06661,-2.25754 2.72271,-3.62963 0.65611,-1.3721 0.99473,-2.91338 0.8422,-4.42661 -0.16666,-1.65334 -0.90243,-3.19715 -1.76616,-4.61675 -0.86372,-1.4196 -1.86667,-2.75503 -2.65195,-4.21948 -1.49606,-2.78996 -2.14827,-5.93875 -2.92292,-9.00828 -0.77465,-3.06952 -1.73101,-6.1886 -3.70425,-8.66416 -1.66511,-2.08899 -3.95282,-3.58716 -6.29066,-4.87983 -2.33784,-1.29267 -4.77626,-2.42286 -6.96367,-3.95639 -5.98374,-4.19501 -9.62998,-11.06174 -15.46339,-15.46339 -5.64537,-4.25976 -12.85244,-5.84731 -19.88149,-6.62716 -8.08643,-0.89717 -16.27342,-0.8766 -24.29961,-2.20906 -11.98893,-1.99033 -23.33878,-6.9523 -35.34489,-8.83622 -13.84492,-2.17245 -27.95879,-0.17343 -41.97205,0 -19.16625,0.23721 -38.28215,-2.95264 -57.43543,-2.20905 -18.33844,0.71195 -36.579313,5.09364 -53.017327,13.25433 -11.84456,5.88026 -22.853315,13.82629 -30.926773,24.29961 -7.516086,9.75026 -12.255351,21.35156 -15.963754,33.09068 -3.708404,11.73912 -6.476709,23.77069 -10.544909,35.39003 -4.624808,13.20908 -10.9469604,25.95919 -13.2543313,39.76299 -2.0689014,12.37716 -0.8114645,25.03132 0,37.55394 0.7694057,11.87356 1.1533112,23.90309 4.4181103,35.34489 3.455457,12.11 10.035223,23.17 13.254332,35.3449 1.333985,5.0452 2.077016,10.2465 2.209055,15.4634" />
    <path id="palate" d="m 344.61262,819.55949 c -7.54937,-5.65336 -14.91791,-11.54819 -22.09056,-17.67244 -7.17706,-6.12801 -14.19024,-12.51029 -22.09055,-17.67244 -10.02269,-6.54894 -21.37175,-11.02961 -33.13583,-13.25433 -11.61703,-2.19691 -23.52194,-2.20787 -35.34488,-2.20906 -15.46339,-0.002 -30.92677,0 -46.39016,0 h -39.76299 c -14.75284,0 -29.4847,0.91994 -44.18111,2.20906 -9.564311,0.83895 -19.137617,1.57535 -28.717717,2.20905" />
    <path id="throat-nasal-cavity" d="m 505.87365,726.77917 c -3.68303,-10.83077 -6.6373,-21.90929 -8.83622,-33.13583 -2.20491,-11.25712 -3.7171,-22.8704 -8.83622,-33.13583 -6.09166,-12.21569 -16.71861,-21.41435 -26.50867,-30.92677 -8.60206,-8.3581 -16.74045,-17.19671 -24.2996,-26.50866 -9.57145,-11.79086 -18.23208,-24.35906 -28.71772,-35.34489 -8.27898,-8.67391 -17.6064,-16.26668 -26.50867,-24.2996 -6.7362,-6.07837 -13.24885,-12.42659 -20.41311,-17.99403 -7.16426,-5.56743 -15.06244,-10.37613 -23.76799,-12.93275 -16.35677,-4.80361 -33.81081,-1.30587 -50.80827,0 -24.97229,1.91856 -50.08199,-1.0006 -75.10788,0 -20.11463,0.80423 -40.06914,4.1404 -59.64449,8.83622 -9.76674,2.34289 -19.49866,5.04173 -28.65166,9.17703 -9.15301,4.1353 -17.75314,9.77169 -24.365665,17.33164 -9.189999,10.50672 -14.042873,24.07531 -17.672441,37.55394 -1.912043,7.10049 -3.548281,14.29595 -6.138996,21.17789 -2.590715,6.88194 -6.20864,13.51368 -11.533446,18.5851 -6.726455,6.40637 -15.645696,9.87844 -24.299608,13.25433 C 25.914657,643.81919 11.949254,649.45675 0,658.29846 c -18.033216,13.34347 -30.441114,33.21714 -48.599215,46.39016 -5.129024,3.72091 -10.659552,6.8619 -15.785893,10.58651 -5.12634,3.72461 -9.921772,8.13711 -12.931825,13.7131 -2.50198,4.63481 -3.66666,9.8901 -4.145823,15.13527 -0.479164,5.24516 -0.300588,10.52457 -0.272288,15.7915 0.09505,17.69007 -1.509609,35.34083 -2.209055,53.01732 -1.340021,33.86522 0.643634,67.761 2.209055,101.61655 1.599633,34.59547 2.7613,69.30345 0,103.82563 -1.478516,18.4846 -4.077611,36.8588 -6.627165,55.2263 -4.411766,31.7833 -8.68632,63.6252 -15.463391,94.9894 -6.86682,31.7796 -16.28834,62.9983 -22.09055,94.9894 -3.73876,20.614 -5.97068,41.5271 -11.04527,61.8535 -2.82291,11.3073 -6.51927,22.3963 -11.04528,33.1359" />
    <path id="epiglottis" d="m 70.689767,768.75122 c -12.003995,3.79253 -23.298979,9.81652 -33.135828,17.67244 -10.209419,8.15347 -18.774787,18.18689 -26.508663,28.71772 -4.3598449,5.93658 -8.4839217,12.06045 -13.2543312,17.67244 -3.7538716,4.41612 -8.0088558,8.57979 -13.2543318,11.04528 -5.452382,2.56274 -11.718384,3.12845 -17.672441,2.20905 -3.964274,-0.61215 -7.914888,-1.90995 -11.045277,-4.41811 -3.41423,-2.73558 -5.646183,-6.7817 -6.627165,-11.04527 -1.05097,-4.56776 -0.732461,-9.39209 0.533653,-13.90495 1.266114,-4.51286 3.455204,-8.72967 6.093512,-12.60372 3.24025,-4.75793 7.150603,-9.01539 11.045277,-13.25433 6.345538,-6.90645 12.71157,-13.83524 19.881497,-19.88149 6.8776967,-5.79981 14.435582,-10.73666 22.0905519,-15.46339 7.8566321,-4.85125 15.8595481,-9.50911 24.2996071,-13.25433 9.176321,-4.07194 18.839564,-7.04524 28.717718,-8.83622" />
  </g>
</svg>
